<svg id="Layer_1" data-name="Layer 1" xmlns="http://www.w3.org/2000/svg" viewBox="0 0 101 101"><defs><style>.cls-1{fill:none;stroke:#fff;stroke-miterlimit:10;}.cls-2{fill:#fff;}</style></defs><title>podsq</title><rect class="cls-1" x="0.5" y="0.5" width="100" height="100"/><path class="cls-2" d="M15.95,61.82V29.54h4.54a2,2,0,0,1,1.15.31,1.64,1.64,0,0,1,.65.92l0.54,1.8a12.3,12.3,0,0,1,1.52-1.42,10,10,0,0,1,1.75-1.1,9.64,9.64,0,0,1,2-.72,10,10,0,0,1,2.35-.26,7.54,7.54,0,0,1,3.54.85,8.17,8.17,0,0,1,2.81,2.46,12.41,12.41,0,0,1,1.85,3.93,19,19,0,0,1,.67,5.28,16.29,16.29,0,0,1-.77,5.1,12.83,12.83,0,0,1-2.15,4.06,9.9,9.9,0,0,1-3.31,2.69,9.35,9.35,0,0,1-4.26,1,8.35,8.35,0,0,1-3.21-.54,8.72,8.72,0,0,1-2.36-1.46v9.4H15.95Zm12-27.15a6.34,6.34,0,0,0-1.45.15,5.35,5.35,0,0,0-1.2.44,4.56,4.56,0,0,0-1,.72,10.66,10.66,0,0,0-.95,1v10.4a4.63,4.63,0,0,0,1.8,1.29,5.7,5.7,0,0,0,2,.37,4.32,4.32,0,0,0,1.87-.4,3.8,3.8,0,0,0,1.48-1.29,6.86,6.86,0,0,0,1-2.3,14.43,14.43,0,0,0,.35-3.45,15.86,15.86,0,0,0-.28-3.26,6.72,6.72,0,0,0-.79-2.14A3.08,3.08,0,0,0,29.49,35,3.49,3.49,0,0,0,27.9,34.67Z"/><path class="cls-2" d="M85.05,21.76V54H80.52a2,2,0,0,1-1.15-.31,1.64,1.64,0,0,1-.65-0.92L78.18,51a12.3,12.3,0,0,1-1.52,1.42,10,10,0,0,1-1.75,1.1,9.64,9.64,0,0,1-2,.72,10,10,0,0,1-2.35.26A7.54,7.54,0,0,1,67,53.65a8.17,8.17,0,0,1-2.81-2.46,12.41,12.41,0,0,1-1.85-3.93A19,19,0,0,1,61.66,42a16.29,16.29,0,0,1,.77-5.1,12.83,12.83,0,0,1,2.15-4.06,9.9,9.9,0,0,1,3.31-2.69,9.35,9.35,0,0,1,4.26-1,8.35,8.35,0,0,1,3.21.54,8.72,8.72,0,0,1,2.36,1.46v-9.4h7.32ZM73.1,48.9a6.34,6.34,0,0,0,1.45-.15,5.35,5.35,0,0,0,1.2-.44,4.56,4.56,0,0,0,1-.72,10.66,10.66,0,0,0,.95-1V36.19a4.63,4.63,0,0,0-1.8-1.29,5.7,5.7,0,0,0-2-.37,4.32,4.32,0,0,0-1.87.4,3.8,3.8,0,0,0-1.48,1.29,6.86,6.86,0,0,0-1,2.3A14.43,14.43,0,0,0,69.22,42a15.86,15.86,0,0,0,.28,3.26,6.72,6.72,0,0,0,.79,2.14,3.08,3.08,0,0,0,1.22,1.17A3.49,3.49,0,0,0,73.1,48.9Z"/><path class="cls-2" d="M50.54,29.25a10.57,10.57,0,0,1,4.35.87,9.5,9.5,0,0,1,3.37,2.5,11.64,11.64,0,0,1,2.18,4,16.45,16.45,0,0,1,.78,5.23,16.75,16.75,0,0,1-.78,5.28,11.74,11.74,0,0,1-2.18,4,9.56,9.56,0,0,1-3.37,2.53,10.44,10.44,0,0,1-4.35.89,10.55,10.55,0,0,1-4.38-.89,9.72,9.72,0,0,1-3.4-2.53,11.54,11.54,0,0,1-2.2-4,16.74,16.74,0,0,1-.78-5.28,16.44,16.44,0,0,1,.78-5.23,11.44,11.44,0,0,1,2.2-4,9.66,9.66,0,0,1,3.4-2.5A10.69,10.69,0,0,1,50.54,29.25Zm0,19.82a3.41,3.41,0,0,0,3.18-1.78,11.23,11.23,0,0,0,1-5.42,11.16,11.16,0,0,0-1-5.41,3.42,3.42,0,0,0-3.18-1.77,3.49,3.49,0,0,0-3.26,1.77,11.07,11.07,0,0,0-1,5.41,11.14,11.14,0,0,0,1,5.42A3.49,3.49,0,0,0,50.54,49.07Z"/><path class="cls-2" d="M24.8,67.1a0.11,0.11,0,0,1-.1.06A0.43,0.43,0,0,1,24.47,67,2.69,2.69,0,0,0,24,66.74a3.82,3.82,0,0,0-.72-0.29,3.66,3.66,0,0,0-1.07-.14,3.15,3.15,0,0,0-1.1.18,2.81,2.81,0,0,0-.86.49,2.22,2.22,0,0,0-.56.7,1.84,1.84,0,0,0-.2.83,1.45,1.45,0,0,0,.24.86,2.08,2.08,0,0,0,.63.58,4.32,4.32,0,0,0,.9.4l1,0.32,1,0.34a3.81,3.81,0,0,1,.9.45,2.21,2.21,0,0,1,.63.66,1.82,1.82,0,0,1,.24,1,2.88,2.88,0,0,1-.21,1.09,2.53,2.53,0,0,1-.61.89,2.92,2.92,0,0,1-1,.6,3.62,3.62,0,0,1-1.31.22,4.6,4.6,0,0,1-.91-0.08,3.94,3.94,0,0,1-.75-0.23,3.24,3.24,0,0,1-.64-0.36,7,7,0,0,1-.59-0.47l0.06-.06,0,0h0.07a0.5,0.5,0,0,1,.25.16,3.48,3.48,0,0,0,.49.37,3.51,3.51,0,0,0,2,.53,3.47,3.47,0,0,0,1.23-.2A2.63,2.63,0,0,0,24.17,75a2.33,2.33,0,0,0,.56-0.82,2.69,2.69,0,0,0,.19-1,1.62,1.62,0,0,0-.24-0.91A2.14,2.14,0,0,0,24,71.59a4,4,0,0,0-.9-0.42l-1-.32-1-.33a4,4,0,0,1-.9-0.43,2.12,2.12,0,0,1-.63-0.63,1.71,1.71,0,0,1-.24-0.94,2,2,0,0,1,.21-0.91,2.43,2.43,0,0,1,.6-0.76,3,3,0,0,1,.92-0.53,3.41,3.41,0,0,1,1.19-.2,4.19,4.19,0,0,1,1.41.22,3.73,3.73,0,0,1,1.18.71Z"/><path class="cls-2" d="M36.78,66.27v13H36.55V73.77A5.07,5.07,0,0,1,35,75.31a3.66,3.66,0,0,1-2,.57,3.44,3.44,0,0,1-2.82-1.19,5.7,5.7,0,0,1-1-3.65,6.88,6.88,0,0,1,.26-1.93,4.54,4.54,0,0,1,.78-1.56,3.72,3.72,0,0,1,1.3-1,4.08,4.08,0,0,1,1.82-.38,3.85,3.85,0,0,1,1.83.42,3.51,3.51,0,0,1,1.33,1.29l0-1.39a0.13,0.13,0,0,1,.14-0.15h0.06ZM33,75.68a3.52,3.52,0,0,0,2-.59,5.28,5.28,0,0,0,1.56-1.63V68.12a3.43,3.43,0,0,0-3.16-1.81,3.87,3.87,0,0,0-1.73.36,3.43,3.43,0,0,0-1.22,1,4.39,4.39,0,0,0-.73,1.5A6.85,6.85,0,0,0,29.46,71a5.6,5.6,0,0,0,.91,3.5A3.19,3.19,0,0,0,33,75.68Z"/><path class="cls-2" d="M42.24,66.27v6.08a5.28,5.28,0,0,0,.17,1.42A2.81,2.81,0,0,0,43,74.83a2.33,2.33,0,0,0,.91.66,3.31,3.31,0,0,0,1.29.23,3.76,3.76,0,0,0,2-.59,5.71,5.71,0,0,0,1.65-1.64V66.27h0.23v9.49H49a0.13,0.13,0,0,1-.14-0.16l0-1.82a6.14,6.14,0,0,1-.75.88,4.49,4.49,0,0,1-.88.67,4.37,4.37,0,0,1-1,.43,3.89,3.89,0,0,1-1.07.15A2.88,2.88,0,0,1,42.78,75,4,4,0,0,1,42,72.35V66.27h0.23Z"/><path class="cls-2" d="M60.31,75.76a0.13,0.13,0,0,1-.14-0.16l-0.06-1.54a10.42,10.42,0,0,1-.81.77,4.69,4.69,0,0,1-.86.58,4.43,4.43,0,0,1-1,.37,4.8,4.8,0,0,1-1.16.13,2.94,2.94,0,0,1-.86-0.13,2.25,2.25,0,0,1-.78-0.42,2.14,2.14,0,0,1-.57-0.74,2.51,2.51,0,0,1-.22-1.1,1.89,1.89,0,0,1,.37-1.15,2.89,2.89,0,0,1,1.14-.87A7.94,7.94,0,0,1,57.33,71a18.73,18.73,0,0,1,2.78-.25V69.48a5,5,0,0,0-.16-1.34,2.83,2.83,0,0,0-.48-1,2.1,2.1,0,0,0-.8-0.62,2.72,2.72,0,0,0-1.12-.22,3.61,3.61,0,0,0-.91.11,4,4,0,0,0-.73.26,3.15,3.15,0,0,0-.56.34l-0.41.34-0.28.26a0.3,0.3,0,0,1-.15.11,0.16,0.16,0,0,1-.1-0.06l0,0a5.5,5.5,0,0,1,1.44-1.12,3.71,3.71,0,0,1,1.73-.39,3.09,3.09,0,0,1,1.25.23,2.28,2.28,0,0,1,.88.67,2.83,2.83,0,0,1,.51,1.06,5.53,5.53,0,0,1,.16,1.41v6.27h0Zm-4,0a4.3,4.3,0,0,0,2.21-.57,5.22,5.22,0,0,0,.85-0.61q0.39-.34.76-0.72V70.9a12.64,12.64,0,0,0-4.53.76,2.07,2.07,0,0,0-1.48,1.87,2.34,2.34,0,0,0,.19,1,2,2,0,0,0,.49.68,2,2,0,0,0,.7.4A2.54,2.54,0,0,0,56.3,75.72Z"/><path class="cls-2" d="M65.44,75.76V66.27H65.5a0.13,0.13,0,0,1,.14.15l0,2.63a6.12,6.12,0,0,1,.5-1.25,3.63,3.63,0,0,1,.71-0.92,2.77,2.77,0,0,1,.92-0.57A3.31,3.31,0,0,1,69,66.12a3.62,3.62,0,0,1,.86.1,4,4,0,0,1,.76.27l0,0.08,0,0.05a0.07,0.07,0,0,1-.06,0l-0.16,0L70,66.48l-0.44-.11a3.34,3.34,0,0,0-.61,0,2.69,2.69,0,0,0-2.05.83,5.82,5.82,0,0,0-1.24,2.36v6.23H65.44Z"/><path class="cls-2" d="M78.37,66.12a3.63,3.63,0,0,1,1.39.27,3.12,3.12,0,0,1,1.13.79,3.73,3.73,0,0,1,.75,1.28,5.2,5.2,0,0,1,.27,1.75,0.08,0.08,0,0,1,0,.07l-0.08,0H74.48a1.84,1.84,0,0,0,0,.26v0.26a7,7,0,0,0,.28,2.09,4.3,4.3,0,0,0,.8,1.52,3.38,3.38,0,0,0,1.25.93,4,4,0,0,0,1.62.32,4.81,4.81,0,0,0,1.38-.17,4.92,4.92,0,0,0,1-.39,3.44,3.44,0,0,0,.58-0.39,0.66,0.66,0,0,1,.26-0.17,0.11,0.11,0,0,1,.08,0l0,0a2.22,2.22,0,0,1-.49.42,4.45,4.45,0,0,1-.76.4,5.7,5.7,0,0,1-1,.3,5,5,0,0,1-1.07.12,4.28,4.28,0,0,1-1.75-.34,3.55,3.55,0,0,1-1.31-1A4.58,4.58,0,0,1,74.52,73a7.2,7.2,0,0,1-.29-2.13,6.17,6.17,0,0,1,.28-1.91,4.27,4.27,0,0,1,.81-1.49,3.66,3.66,0,0,1,1.3-1A4.25,4.25,0,0,1,78.37,66.12Zm0,0.19a4.06,4.06,0,0,0-1.53.28,3.45,3.45,0,0,0-1.18.77,3.74,3.74,0,0,0-.79,1.21,5.46,5.46,0,0,0-.38,1.56H81.7a4.89,4.89,0,0,0-.25-1.63,3.39,3.39,0,0,0-.7-1.2,3,3,0,0,0-1.06-.74A3.42,3.42,0,0,0,78.37,66.31Z"/></svg>