<svg id="Layer_1" data-name="Layer 1" xmlns="http://www.w3.org/2000/svg" viewBox="0 0 54.36 93.1"><defs><style>.cls-1{fill:#fff;}</style></defs><title>podsq-logo</title><path class="cls-1" d="M37.34,0V18.69h0c-0.45-.3-0.91-0.59-1.38-0.84A17.24,17.24,0,0,0,34.19,17a18.26,18.26,0,0,0-6.93-1.31,18.09,18.09,0,0,0-8.75,2.13L18.28,18a19.09,19.09,0,0,0-3.44,2.47v0a12.22,12.22,0,0,0-1.64-1.61,4.7,4.7,0,0,0-2.66-.71H0v75H17V74.3c0.48,0.33,1,.64,1.49.92a17.2,17.2,0,0,0,1.84.87,18.28,18.28,0,0,0,6.92,1.3A17.69,17.69,0,0,0,36,75.22l0.21-.12A19,19,0,0,0,40,72.23v0a13.51,13.51,0,0,0,1.2,2,4.7,4.7,0,0,0,2.66.71H54.36V0h-17ZM33.87,59.17c-0.08.2-.16,0.4-0.24,0.59q-2,4.36-6.37,4.36a6.52,6.52,0,0,1-5.37-2.51,9.35,9.35,0,0,1-1.14-1.85q-2.06-4.36-2.06-13.24c0-5.54.61-9.73,1.81-12.61,0.08-.2.16-0.41,0.25-0.6A6.82,6.82,0,0,1,27.26,29a6.36,6.36,0,0,1,5.32,2.6,9.5,9.5,0,0,1,1,1.72q2,4.33,2,13.21C35.67,52.07,35.06,56.27,33.87,59.17Z"/></svg>